<svg xmlns="http://www.w3.org/2000/svg" width="512" height="512" viewBox="0 0 512 512"><defs><radialGradient id="glow2" cx="50%" cy="50%" r="50%"><stop offset="0%" style="stop-color:#06f;stop-opacity:.3"/><stop offset="100%" style="stop-color:#06f;stop-opacity:0"/></radialGradient><linearGradient id="line-grad" x1="0%" x2="100%" y1="0%" y2="0%"><stop offset="0%" style="stop-color:#06f"/><stop offset="100%" style="stop-color:#0cf"/></linearGradient></defs><rect width="512" height="512" fill="#0A0A1A"/><circle cx="230" cy="256" r="200" fill="url(#glow2)"/><line x1="230" x2="130" y1="256" y2="140" stroke="#06F" stroke-width="2" opacity=".4"/><line x1="230" x2="100" y1="256" y2="256" stroke="#06F" stroke-width="2" opacity=".35"/><line x1="230" x2="130" y1="256" y2="372" stroke="#06F" stroke-width="2" opacity=".3"/><line x1="230" x2="310" y1="256" y2="140" stroke="#06F" stroke-width="2" opacity=".45"/><line x1="230" x2="310" y1="256" y2="372" stroke="#06F" stroke-width="2" opacity=".35"/><line x1="230" x2="440" y1="256" y2="220" stroke="url(#line-grad)" stroke-width="4" opacity=".9"/><polygon fill="#06F" points="230 232 246 248 246 264 230 280 214 264 214 248" opacity=".9"/><circle cx="230" cy="256" r="10" fill="#0CF"/><circle cx="130" cy="140" r="6" fill="#06F" opacity=".4"/><circle cx="100" cy="256" r="6" fill="#06F" opacity=".35"/><circle cx="130" cy="372" r="6" fill="#06F" opacity=".3"/><circle cx="310" cy="140" r="6" fill="#06F" opacity=".45"/><circle cx="310" cy="372" r="6" fill="#06F" opacity=".35"/><circle cx="440" cy="220" r="20" fill="#06F" opacity=".15"/><circle cx="440" cy="220" r="12" fill="#0AF" opacity=".6"/><circle cx="440" cy="220" r="6" fill="#0CF" opacity=".9"/><path fill="none" stroke="#0CF" stroke-linecap="round" stroke-width="2" d="M 454 200 A 20 20 0 0 1 454 240" opacity=".5"/><path fill="none" stroke="#0CF" stroke-linecap="round" stroke-width="1.5" d="M 464 192 A 30 30 0 0 1 464 248" opacity=".3"/></svg>